<?xml version="1.0" standalone="no"?>
<!DOCTYPE svg PUBLIC "-//W3C//DTD SVG 20010904//EN"
 "http://www.w3.org/TR/2001/REC-SVG-20010904/DTD/svg10.dtd">
<svg version="1.0" xmlns="http://www.w3.org/2000/svg"
 width="500.000000pt" height="500.000000pt" viewBox="0 0 500.000000 500.000000"
 preserveAspectRatio="xMidYMid meet">
<metadata>
Created by potrace 1.16, written by Peter Selinger 2001-2019
</metadata>
<g transform="translate(0.000000,500.000000) scale(0.100000,-0.100000)"
fill="#000000" stroke="none">
<path d="M1850 4155 c36 -19 85 -57 111 -84 53 -59 515 -859 502 -871 -4 -4
-74 -46 -155 -94 -166 -97 -233 -157 -278 -250 -56 -114 -63 -235 -19 -350 11
-31 123 -235 249 -454 195 -340 226 -398 211 -406 -9 -5 -309 -177 -666 -382
-358 -205 -673 -379 -700 -387 -28 -9 -43 -16 -34 -16 39 -2 129 46 739 396
355 203 690 395 745 426 95 54 101 56 115 39 8 -10 116 -195 240 -411 251
-439 272 -467 398 -528 63 -30 88 -36 162 -41 106 -6 173 8 256 54 191 105
280 345 203 551 -12 29 -126 238 -255 464 -129 225 -244 433 -255 461 -52 134
-20 315 78 435 48 60 75 77 527 335 220 126 420 245 443 264 113 93 174 257
152 411 -24 173 -158 326 -329 374 -72 20 -182 19 -248 -3 -33 -10 -385 -205
-803 -444 -409 -234 -747 -426 -752 -427 -4 -1 -112 180 -240 403 -144 249
-251 425 -280 456 -39 44 -147 114 -173 114 -5 0 20 -16 56 -35z"/>
<path d="M1701 2336 c-57 -117 -87 -139 -516 -385 -491 -282 -513 -296 -570
-368 -41 -53 -86 -145 -84 -176 0 -7 10 15 23 48 54 147 85 171 583 456 471
269 513 299 572 418 18 34 31 66 29 70 -2 3 -18 -25 -37 -63z"/>
</g>
</svg>
